<?xml version="1.0" encoding="UTF-8"?>
<svg id="Calque_1" data-name="Calque 1" xmlns="http://www.w3.org/2000/svg" viewBox="0 0 2979 2979">
  <defs>
    <style>
      .cls-1 {
        fill: #1f3b73;
      }

      .cls-1, .cls-2 {
        stroke-width: 0px;
      }

      .cls-2 {
        fill: #fffffc;
      }
    </style>
  </defs>
  <rect class="cls-2" width="2979" height="2979" rx="407.78" ry="407.78"/>
  <path class="cls-1" d="m2050.05,675.86c10.53-2.53,21.41-3.49,32.2-2.48,158.46,14.81,259.52,165.78,207.93,324.47-69.34,213.29-141.06,425.8-211.96,638.58-54.28,162.89-108.84,325.69-163.36,488.5-38.81,115.89-122,181.34-230.81,181.77-110.63.43-195.17-65.71-234.49-183.39-43.1-129.01-86.93-257.78-128.97-387.13-12.63-38.88-36.01-62.17-74.82-74.85-136.69-44.64-273.18-89.96-409.06-136.99-89.86-31.1-144.49-96.49-158.36-189.61-13.87-93.09,18.98-171.65,96.08-227.58,23.3-16.9,51.28-28.93,78.8-38.17,369.35-124.03,738.93-247.35,1108.67-370.2,28.75-9.55,58.59-15.81,88.15-22.92Zm97.21,264.86c4.03-15.5,4.49-31.78.77-47.36-12.47-52.15-62.98-74.46-126.01-53.5-372.55,123.87-744.86,248.46-1117.52,372.01-44.1,14.62-76.11,39.09-75.88,87.57.23,48.14,31.31,72.91,76.02,87.3,129.44,41.67,257.7,87.02,387.19,128.54,89.97,28.85,146.77,87.15,175.64,176.47,41.38,128.01,85.73,255.05,127.14,383.05,14.13,43.66,35.55,75.91,85.59,77.79,45.14,1.7,71.35-20.46,90.36-77.48,123.78-371.23,247.28-742.56,370.75-1113.9,2.34-7.04,4.31-14.21,5.94-20.5Z"/>
</svg>