<?xml version="1.0" encoding="UTF-8"?>
<svg id="Calque_1" data-name="Calque 1" xmlns="http://www.w3.org/2000/svg" viewBox="0 0 2973.46 550.32">
  <defs>
    <style>
      .cls-1 {
        fill: #1f3b73;
        stroke-width: 0px;
      }
    </style>
  </defs>
  <g>
    <path class="cls-1" d="m0,238.94C0,100.22,106.19,0,248.88,0c75.66,0,140.71,27.21,183.85,77.66l-55.75,52.43c-33.86-36.5-75.66-54.42-124.11-54.42-96.23,0-165.92,67.7-165.92,163.27s69.69,163.26,165.92,163.26c48.45,0,90.26-17.91,124.11-55.08l55.75,53.1c-43.15,50.44-108.19,77.65-184.51,77.65C106.19,477.86,0,377.64,0,238.94Z"/>
    <path class="cls-1" d="m801.1,263.49v207.74h-78.31v-43.14c-19.91,30.53-58.41,47.78-111.51,47.78-80.97,0-132.07-44.46-132.07-106.19s39.82-105.52,147.34-105.52h91.6v-5.31c0-48.45-29.21-76.99-88.27-76.99-39.83,0-80.98,13.28-107.52,35.17l-32.53-60.39c37.83-29.21,92.91-43.81,150-43.81,102.22,0,161.27,48.45,161.27,150.66Zm-82.95,96.9v-41.15h-85.62c-56.41,0-71.68,21.24-71.68,47.12,0,29.87,25.22,49.11,67.7,49.11s75.66-18.58,89.6-55.08Z"/>
    <path class="cls-1" d="m1112.39,112.83v78.98c-7.3-1.33-13.28-2-19.25-2-63.05,0-102.86,37.17-102.86,109.52v171.89h-82.97V116.81h78.98v51.77c23.9-37.16,67.03-55.74,126.1-55.74Z"/>
    <path class="cls-1" d="m1409.07,451.98c-19.91,15.93-49.78,23.9-79.64,23.9-77.65,0-122.13-41.15-122.13-119.47v-170.57h-58.4v-66.37h58.4V38.5h82.97v80.97h94.91v66.37h-94.91v168.58c0,34.51,17.25,53.1,49.11,53.1,17.26,0,33.86-4.65,46.46-14.61l23.23,59.07Z"/>
    <path class="cls-1" d="m1436.3,294.02c0-106.19,79.64-181.18,188.49-181.18s189.16,74.99,189.16,181.18-78.98,181.85-189.16,181.85-188.49-75.66-188.49-181.85Zm294.01,0c0-67.69-45.12-110.84-105.52-110.84s-104.86,43.15-104.86,110.84,45.13,110.84,104.86,110.84,105.52-43.14,105.52-110.84Z"/>
  </g>
  <g>
    <path class="cls-1" d="m2364.68,148.94l-110.37,291h-26.2l-98.12-252.54-98.67,252.54h-25.65l-110.38-291h26.76l97,259.78,99.23-259.78h23.98l98.67,259.23,98.12-259.23h25.64Z"/>
    <path class="cls-1" d="m2630.6,255.42v184.52h-26.76v-51.85c-18.4,33.45-54.07,54.07-104.8,54.07-65.23,0-104.81-33.44-104.81-83.06,0-44.04,27.88-81.39,108.71-81.39h99.78v-23.42c0-54.07-29.54-83.06-86.41-83.06-40.14,0-76.37,15.05-100.35,36.79l-13.94-20.06c28.99-25.65,71.36-41.26,116.51-41.26,71.91,0,112.05,36.79,112.05,108.71Zm-27.87,98.67v-54.64h-99.23c-60.21,0-81.39,25.09-81.39,58.54,0,37.9,29.54,61.31,80.83,61.31s83.06-23.41,99.78-65.22Z"/>
    <path class="cls-1" d="m2973.46,148.94l-149.41,330.58c-23.41,53.52-52.41,70.8-90.87,70.8-26.2,0-50.74-8.92-67.45-26.2l13.94-21.19c15.05,15.61,32.33,22.86,54.07,22.86,26.76,0,46.27-12.27,64.11-51.84l15.61-35.12-131.01-289.89h29.55l116.51,260.34,116.51-260.34h28.44Z"/>
  </g>
</svg>